# xmcd CD database file
#
# Track frame offsets:
#	150
#	28483
#	50648
#	65623
#	87743
#	113115
#	127223
#	145634
#	159477
#	187463
#	215014
#	227274
#	249605
#	267452
#	305643
#	324191
#	339236
#
# Disc length: 4727 seconds
#
# Revision: 3
# Processed by: cddbd v1.5.2PL0 Copyright (c) Steve Scherf et al.
# Submitted via: CDex 1.81
#
DISCID=0b127511
DTITLE=BestJazz100-PremiumStandards - Best Jazz 100 Premium Standards 3 - Beautiful Standards
DYEAR=2000
DGENRE=Jazz
TTITLE0=Violets For Your Furs
TTITLE1=Hush-A-Bye
TTITLE2=The Man I Love
TTITLE3=My Foolish Heart
TTITLE4=Since I Fell For You
TTITLE5=Speak Low
TTITLE6=I Can't Give You Anything But Love
TTITLE7=But Not For Me
TTITLE8=My One And Only Love
TTITLE9=It's All Right With Me
TTITLE10=Angel Eyes
TTITLE11=Bewitched
TTITLE12=Falling In Love With Love
TTITLE13=Witchcraft
TTITLE14=Dancing In The Dark
TTITLE15=Tea For Two
TTITLE16=So In Love
EXTD=YEAR: 2000
EXTT0=
EXTT1=
EXTT2=
EXTT3=
EXTT4=
EXTT5=
EXTT6=
EXTT7=
EXTT8=
EXTT9=
EXTT10=
EXTT11=
EXTT12=
EXTT13=
EXTT14=
EXTT15=
EXTT16=
PLAYORDER=
